# xmcd CD database file
#
# Track frame offsets:
#	150
#	18165
#	25995
#	40149
#	54673
#	65406
#	80212
#	95784
#	110020
#	120114
#	139861
#	148351
#	159979
#	173153
#	182783
#	207916
#	218569
#	231342
#	243080
#	253345
#	272348
#	293386
#	306633
#	320971
#	329937
#	338662
#
# Disc length: 4733 seconds
#
# Revision: 0
# Processed by: cddbd v1.5.1PL0 Copyright (c) Steve Scherf et al.
# Submitted via: CDex 1.51
#
DISCID=8f127b1a
DTITLE=Marty Robbins - Ultimate Cowboy Songs (GBATS 1-12, more GBATS15-21))
DYEAR=1900
DGENRE=Country
TTITLE0=Marty Robbins - Big Iron
TTITLE1=Marty Robbins - A Hundred And Sixty Acres
TTITLE2=Marty Robbins - They're Hanging Me Tonight
TTITLE3=Marty Robbins - Cool Water
TTITLE4=Marty Robbins - Billy The Kid
TTITLE5=Marty Robbins - Utah Carrol
TTITLE6=Marty Robbins - The Strawberry Roan
TTITLE7=Marty Robbins - The Master's Call
TTITLE8=Marty Robbins - Running Gun
TTITLE9=Marty Robbins - El Paso
TTITLE10=Marty Robbins - In The Valley
TTITLE11=Marty Robbins - The Little Green Valley
TTITLE12=Marty Robbins - The Hanging Tree (single A side)
TTITLE13=Marty Robbins - Saddle Tramp (B side of Big Iron)
TTITLE14=Marty Robbins - San Angelo
TTITLE15=Marty Robbins - Prairie Fire
TTITLE16=Marty Robbins - Streets Of Laredo
TTITLE17=Marty Robbins - Song Of The Bandit
TTITLE18=Marty Robbins - Five Brothers
TTITLE19=Marty Robbins - Little Joe The Wrangler
TTITLE20=Marty Robbins - Ride Cowboy Ride
TTITLE21=Marty Robbins - 19620410 Devil Woman
TTITLE22=Marty Robbins - 19630227 Man Walks Among Us
TTITLE23=Marty Robbins - 19630807 Beautiful Dreamer
TTITLE24=Marty Robbins - 19640427 I'm Gonna Be A Cowboy
TTITLE25=Marty Robbins - 19690402 (Ghost) Riders In The Sky)
EXTD=
EXTT0=
EXTT1=
EXTT2=
EXTT3=
EXTT4=
EXTT5=
EXTT6=
EXTT7=
EXTT8=
EXTT9=
EXTT10=
EXTT11=
EXTT12=
EXTT13=
EXTT14=
EXTT15=
EXTT16=
EXTT17=
EXTT18=
EXTT19=
EXTT20=
EXTT21=
EXTT22=
EXTT23=
EXTT24=
EXTT25=
PLAYORDER=
